<svg width="70" height="70" viewBox="0 0 70 70" fill="none" xmlns="http://www.w3.org/2000/svg">
<path d="M35 1.09375C16.2695 1.09375 1.09372 16.2695 1.09372 35C1.09372 53.7305 16.2695 68.9062 35 68.9062C53.7304 68.9062 68.9062 53.7305 68.9062 35C68.9062 16.2695 53.7304 1.09375 35 1.09375ZM50.8593 41.0156H35V50.709C35 52.1719 33.2226 52.9102 32.1972 51.8711L16.5703 36.1621C15.9277 35.5195 15.9277 34.4941 16.5703 33.8516L32.1972 18.1289C33.2363 17.0898 35 17.8281 35 19.291V28.9844H50.8593C51.7617 28.9844 52.5 29.7227 52.5 30.625V39.375C52.5 40.2773 51.7617 41.0156 50.8593 41.0156Z" fill="black"/>
</svg>
